<?xml version="1.0" encoding="UTF-8" standalone="no"?>
<!-- Created with Inkscape (http://www.inkscape.org/) -->

<svg
   xmlns:dc="http://purl.org/dc/elements/1.1/"
   xmlns:cc="http://creativecommons.org/ns#"
   xmlns:rdf="http://www.w3.org/1999/02/22-rdf-syntax-ns#"
   xmlns:svg="http://www.w3.org/2000/svg"
   xmlns="http://www.w3.org/2000/svg"
   xmlns:sodipodi="http://sodipodi.sourceforge.net/DTD/sodipodi-0.dtd"
   xmlns:inkscape="http://www.inkscape.org/namespaces/inkscape"
   width="280"
   height="280"
   id="svg11709"
   version="1.1"
   inkscape:version="0.91 r13725"
   sodipodi:docname="progress-bars.svg">
  <defs
     id="defs11711" />
  <sodipodi:namedview
     id="base"
     pagecolor="#ffffff"
     bordercolor="#666666"
     borderopacity="1.0"
     inkscape:pageopacity="0.0"
     inkscape:pageshadow="2"
     inkscape:zoom="1"
     inkscape:cx="129.88544"
     inkscape:cy="127.0891"
     inkscape:document-units="px"
     inkscape:current-layer="layer1"
     showgrid="false"
     inkscape:showpageshadow="false"
     inkscape:window-width="1920"
     inkscape:window-height="1136"
     inkscape:window-x="0"
     inkscape:window-y="27"
     inkscape:window-maximized="1" />
  <metadata
     id="metadata11714">
    <rdf:RDF>
      <cc:Work
         rdf:about="">
        <dc:format>image/svg+xml</dc:format>
        <dc:type
           rdf:resource="http://purl.org/dc/dcmitype/StillImage" />
        <dc:title />
      </cc:Work>
    </rdf:RDF>
  </metadata>
  <g
     inkscape:label="Layer 1"
     inkscape:groupmode="layer"
     id="layer1"
     transform="translate(0,-772.36218)">
    <rect
       style="color:#000000;fill:#dbdbdb;fill-opacity:1;fill-rule:nonzero;stroke:#919191;stroke-width:1;stroke-linecap:butt;stroke-linejoin:miter;stroke-miterlimit:4;stroke-opacity:1;stroke-dasharray:none;stroke-dashoffset:0;marker:none;visibility:visible;display:inline;overflow:visible;enable-background:new"
       id="rect16720"
       width="239"
       height="5"
       x="20.5"
       y="950.86218"
       rx="1.9999999"
       ry="1.9999999"
       inkscape:export-filename="/home/lapo.fedora/SparkleShare/gnome-mockups/content selection/content-selection.png"
       inkscape:export-xdpi="90"
       inkscape:export-ydpi="90" />
    <path
       sodipodi:nodetypes="sssssssss"
       inkscape:connector-curvature="0"
       id="path16722"
       d="m 22.5,950.86219 93,0 c 0.483,0 1,0.5014 1,1 l 0,3 c 0,0.5198 -0.5014,1 -1,1 l -93,0 c -1.108,0 -2,-0.892 -2,-2 l 0,-1 c 0,-1.108 0.892,-2 2,-2 z"
       style="color:#000000;fill:#4a90d9;fill-opacity:1;fill-rule:nonzero;stroke:#1c5288;stroke-width:1;stroke-linecap:butt;stroke-linejoin:miter;stroke-miterlimit:4;stroke-opacity:1;stroke-dashoffset:0;marker:none;visibility:visible;display:inline;overflow:visible;enable-background:new" />
    <text
       xml:space="preserve"
       style="font-size:11px;font-style:normal;font-variant:normal;font-weight:normal;font-stretch:normal;text-align:center;line-height:125%;letter-spacing:0px;word-spacing:0px;text-anchor:middle;fill:#888a85;fill-opacity:1;stroke:none;font-family:Cantarell;-inkscape-font-specification:Cantarell"
       x="140.12573"
       y="934.36218"
       id="text16724"
       sodipodi:linespacing="125%"><tspan
         sodipodi:role="line"
         id="tspan16726"
         x="140.12573"
         y="934.36218">About 4 minutes remaining</tspan></text>
    <text
       sodipodi:linespacing="125%"
       id="text6023"
       y="918.36218"
       x="140.12573"
       style="font-size:14px;font-style:normal;font-variant:normal;font-weight:normal;font-stretch:normal;text-align:center;line-height:125%;letter-spacing:0px;word-spacing:0px;text-anchor:middle;fill:#2e3436;fill-opacity:1;stroke:none;font-family:Cantarell;-inkscape-font-specification:Cantarell"
       xml:space="preserve"><tspan
         y="918.36218"
         x="140.12573"
         id="tspan6025"
         sodipodi:role="line">12 of 30 exported</tspan></text>
    <g
       id="g6151"
       transform="matrix(2.0044743,0,0,2.0044743,123.93329,866.29506)"
       style="fill:#2e3436">
      <g
         transform="translate(-621.03145,-301.03125)"
         style="fill:#2e3436;display:inline"
         inkscape:label="status"
         id="layer9" />
      <g
         transform="translate(-621.03145,-301.03125)"
         style="fill:#2e3436;display:inline"
         inkscape:label="devices"
         id="layer10" />
      <g
         transform="translate(-621.03145,-301.03125)"
         inkscape:label="apps"
         id="layer11"
         style="fill:#2e3436" />
      <g
         transform="translate(-621.03145,-301.03125)"
         style="fill:#2e3436;display:inline"
         inkscape:label="places"
         id="layer13" />
      <g
         transform="translate(-621.03145,-301.03125)"
         inkscape:label="mimetypes"
         id="layer14"
         style="fill:#2e3436">
        <path
           style="font-size:medium;font-style:normal;font-variant:normal;font-weight:normal;font-stretch:normal;text-indent:0;text-align:start;text-decoration:none;line-height:normal;letter-spacing:normal;word-spacing:normal;text-transform:none;direction:ltr;block-progression:tb;writing-mode:lr-tb;text-anchor:start;baseline-shift:baseline;color:#000000;fill:#2e3436;fill-opacity:1;stroke:none;stroke-width:2;marker:none;visibility:visible;display:inline;overflow:visible;enable-background:new;font-family:Sans;-inkscape-font-specification:Sans"
           id="rect35282"
           d="m 622.0625,302.0625 0,1 0,11.96875 0,1 1,0 11.96875,0 1,0 0,-1 0,-11.96875 0,-1 -1,0 -11.96875,0 -1,0 z m 2,2 9.96875,0 0,9.96875 -9.96875,0 0,-9.96875 z"
           inkscape:connector-curvature="0" />
        <path
           style="font-size:medium;font-style:normal;font-variant:normal;font-weight:normal;font-stretch:normal;text-indent:0;text-align:start;text-decoration:none;line-height:normal;letter-spacing:normal;word-spacing:normal;text-transform:none;direction:ltr;block-progression:tb;writing-mode:lr-tb;text-anchor:start;baseline-shift:baseline;color:#000000;fill:#2e3436;fill-opacity:1;stroke:none;stroke-width:1;marker:none;visibility:visible;display:inline;overflow:visible;enable-background:accumulate;font-family:Sans;-inkscape-font-specification:Sans"
           id="path35302"
           d="m 630.5625,309.34375 c -0.46643,-0.0643 -1.04585,-0.1297 -1.53125,0.25 -0.40319,0.3154 -0.7654,0.72703 -1.09375,1.03125 -0.32835,0.30422 -0.65996,0.4375 -0.59375,0.4375 l -3.84375,0 0,1 3.84375,0 c 0.58207,0 0.88604,-0.38153 1.25,-0.71875 0.36396,-0.33722 0.75079,-0.69367 1.0625,-0.9375 0.10629,-0.0831 0.40859,-0.14514 0.78125,-0.0937 0.37266,0.0514 0.69959,0.1875 1.09375,0.1875 0.14648,0 0.20407,0.0328 0.3125,0.125 0.10843,0.0922 0.24045,0.24389 0.375,0.4375 0.13455,0.19361 0.28193,0.42119 0.5,0.625 0.21807,0.20381 0.56155,0.375 0.9375,0.375 l 0.84375,0 0,-1 -0.84375,0 c -0.0991,0 -0.15147,-0.002 -0.25,-0.0937 -0.0985,-0.0921 -0.23537,-0.26783 -0.375,-0.46875 -0.13963,-0.20092 -0.29184,-0.42134 -0.53125,-0.625 -0.23941,-0.20366 -0.57764,-0.375 -0.96875,-0.375 -0.0328,0 -0.50232,-0.0919 -0.96875,-0.15625 z"
           inkscape:connector-curvature="0" />
        <path
           style="font-size:medium;font-style:normal;font-variant:normal;font-weight:normal;font-stretch:normal;text-indent:0;text-align:start;text-decoration:none;line-height:normal;letter-spacing:normal;word-spacing:normal;text-transform:none;direction:ltr;block-progression:tb;writing-mode:lr-tb;text-anchor:start;baseline-shift:baseline;color:#000000;fill:#2e3436;fill-opacity:1;stroke:none;stroke-width:1.18468678;marker:none;visibility:visible;display:inline;overflow:visible;enable-background:accumulate;font-family:Sans;-inkscape-font-specification:Sans"
           id="path35306"
           d="m 626.47137,304.91487 c -0.86024,0 -1.55632,0.72246 -1.55632,1.58269 0,0.86024 0.69608,1.55632 1.55632,1.55632 0.86024,0 1.5827,-0.69608 1.5827,-1.55632 0,-0.86023 -0.72246,-1.58269 -1.5827,-1.58269 z m 0,1.00237 c 0.3198,0 0.58032,0.26053 0.58032,0.58032 0,0.3198 -0.26052,0.55395 -0.58032,0.55395 -0.3198,0 -0.55394,-0.23415 -0.55394,-0.55395 0,-0.31979 0.23414,-0.58032 0.55394,-0.58032 z"
           inkscape:connector-curvature="0" />
      </g>
      <g
         transform="translate(-621.03145,-301.03125)"
         style="fill:#2e3436;display:inline"
         inkscape:label="emblems"
         id="layer15" />
      <g
         transform="translate(-621.03145,-301.03125)"
         style="fill:#2e3436;display:inline"
         inkscape:label="emotes"
         id="g71291" />
      <g
         transform="translate(-621.03145,-301.03125)"
         style="fill:#2e3436;display:inline"
         inkscape:label="categories"
         id="g4953" />
      <g
         transform="translate(-621.03145,-301.03125)"
         style="fill:#2e3436;display:inline"
         inkscape:label="actions"
         id="layer12" />
    </g>
  </g>
</svg>
